<?xml version="1.0" encoding="UTF-8"?>
<svg xmlns="http://www.w3.org/2000/svg" width="63.766" height="87.266" viewBox="0 0 63.766 87.266">
  <g id="noun-lost-6260100" transform="translate(173.159 12.597)">
    <g id="Groupe_16209" data-name="Groupe 16209" transform="translate(-173.159 -12.597)">
      <path id="Tracé_4462" data-name="Tracé 4462" d="M1679.385,122.657a1.493,1.493,0,0,0,2.076,0,149.785,149.785,0,0,0,19.921-24.534c5.988-9.4,10.924-20.3,10.924-30.426a31.883,31.883,0,1,0-63.766,0c0,10.129,4.935,21.022,10.924,30.426A149.767,149.767,0,0,0,1679.385,122.657Zm1.023-3.2a147.883,147.883,0,0,1-18.417-22.945c-5.688-8.916-10.442-19.208-10.442-28.81a28.874,28.874,0,1,1,57.747,0c0,9.6-4.785,19.894-10.472,28.81A147.906,147.906,0,0,1,1680.408,119.453Zm0-76.134a24.154,24.154,0,1,0,24.164,24.152A24.147,24.147,0,0,0,1680.408,43.319Zm0,3.009a21.144,21.144,0,1,1-21.125,21.143A21.158,21.158,0,0,1,1680.408,46.328Zm-1.023,32.31a2.28,2.28,0,1,1-2.287,2.281A2.283,2.283,0,0,1,1679.385,78.638ZM1671.47,60.7v.1a1.4,1.4,0,0,0,.481,1,1.491,1.491,0,0,0,1.023.412s1.5-.09,1.5-1.508a5.792,5.792,0,0,1,5.808-5.79h1.264a5.989,5.989,0,0,1,4.213,1.739,5.917,5.917,0,0,1,1.715,4.2v.238a5.223,5.223,0,0,1-3.731,5.028h0a8.291,8.291,0,0,0-5.928,7.46,1.526,1.526,0,0,0,1.444,1.586,1.49,1.49,0,0,0,1.565-1.42,5.251,5.251,0,0,1,3.761-4.74h0a8.258,8.258,0,0,0,5.9-7.914v-.238a8.945,8.945,0,0,0-8.938-8.949h-1.264A8.806,8.806,0,0,0,1671.47,60.7Z" transform="translate(-1648.54 -35.811)" fill="#f39313" fill-rule="evenodd"></path>
    </g>
  </g>
</svg>
